<mxfile host="65bd71144e">
    <diagram id="KfGUBEHi8sUYiw16xjgU" name="Page-1">
        <mxGraphModel dx="1231" dy="784" grid="1" gridSize="10" guides="1" tooltips="1" connect="1" arrows="1" fold="1" page="1" pageScale="1" pageWidth="1169" pageHeight="827" math="0" shadow="0">
            <root>
                <mxCell id="0"/>
                <mxCell id="1" parent="0"/>
                <mxCell id="2" value="Airline" style="shape=umlActor;verticalLabelPosition=bottom;verticalAlign=top;html=1;outlineConnect=0;sketch=0;hachureGap=4;fontFamily=Helvetica;fontSize=20;" vertex="1" parent="1">
                    <mxGeometry x="380" y="320" width="30" height="60" as="geometry"/>
                </mxCell>
                <mxCell id="3" value="Flights" style="ellipse;shape=cloud;whiteSpace=wrap;html=1;sketch=0;hachureGap=4;fontFamily=Helvetica;fontSize=20;" vertex="1" parent="1">
                    <mxGeometry x="150" y="170" width="120" height="80" as="geometry"/>
                </mxCell>
                <mxCell id="4" value="Airports" style="ellipse;shape=cloud;whiteSpace=wrap;html=1;sketch=0;hachureGap=4;fontFamily=Helvetica;fontSize=20;" vertex="1" parent="1">
                    <mxGeometry x="310" y="130" width="120" height="80" as="geometry"/>
                </mxCell>
                <mxCell id="5" value="Planes" style="ellipse;shape=cloud;whiteSpace=wrap;html=1;sketch=0;hachureGap=4;fontFamily=Helvetica;fontSize=20;" vertex="1" parent="1">
                    <mxGeometry x="465" y="190" width="120" height="80" as="geometry"/>
                </mxCell>
            </root>
        </mxGraphModel>
    </diagram>
    <diagram name="Page-2" id="3pL9Nm6AoJAXVYSWDN5P">
        <mxGraphModel dx="1356" dy="706" grid="1" gridSize="10" guides="1" tooltips="1" connect="1" arrows="1" fold="1" page="1" pageScale="1" pageWidth="1169" pageHeight="827" math="0" shadow="0">
            <root>
                <mxCell id="UFqSZ7EOs6Zyw-vwE1AV-0"/>
                <mxCell id="UFqSZ7EOs6Zyw-vwE1AV-1" parent="UFqSZ7EOs6Zyw-vwE1AV-0"/>
                <mxCell id="UFqSZ7EOs6Zyw-vwE1AV-28" style="edgeStyle=none;curved=1;rounded=0;sketch=0;hachureGap=4;orthogonalLoop=1;jettySize=auto;html=1;exitX=1;exitY=0.5;exitDx=0;exitDy=0;fontFamily=Helvetica;fontSize=13;endArrow=none;endFill=0;startSize=14;endSize=14;sourcePerimeterSpacing=8;targetPerimeterSpacing=8;" edge="1" parent="UFqSZ7EOs6Zyw-vwE1AV-1" source="UFqSZ7EOs6Zyw-vwE1AV-6" target="UFqSZ7EOs6Zyw-vwE1AV-7">
                    <mxGeometry relative="1" as="geometry"/>
                </mxCell>
                <mxCell id="UFqSZ7EOs6Zyw-vwE1AV-6" value="Flights" style="rounded=1;whiteSpace=wrap;html=1;sketch=0;hachureGap=4;fontFamily=Helvetica;fontSize=20;" vertex="1" parent="UFqSZ7EOs6Zyw-vwE1AV-1">
                    <mxGeometry x="350" y="240" width="120" height="60" as="geometry"/>
                </mxCell>
                <mxCell id="UFqSZ7EOs6Zyw-vwE1AV-7" value="Airports" style="rounded=1;whiteSpace=wrap;html=1;sketch=0;hachureGap=4;fontFamily=Helvetica;fontSize=20;" vertex="1" parent="UFqSZ7EOs6Zyw-vwE1AV-1">
                    <mxGeometry x="620" y="240" width="120" height="60" as="geometry"/>
                </mxCell>
                <mxCell id="UFqSZ7EOs6Zyw-vwE1AV-27" style="edgeStyle=none;curved=1;rounded=0;sketch=0;hachureGap=4;orthogonalLoop=1;jettySize=auto;html=1;exitX=1;exitY=0.5;exitDx=0;exitDy=0;fontFamily=Helvetica;fontSize=13;endArrow=none;endFill=0;startSize=14;endSize=14;sourcePerimeterSpacing=8;targetPerimeterSpacing=8;" edge="1" parent="UFqSZ7EOs6Zyw-vwE1AV-1" source="UFqSZ7EOs6Zyw-vwE1AV-8" target="UFqSZ7EOs6Zyw-vwE1AV-6">
                    <mxGeometry relative="1" as="geometry"/>
                </mxCell>
                <mxCell id="UFqSZ7EOs6Zyw-vwE1AV-8" value="Planes" style="rounded=1;whiteSpace=wrap;html=1;sketch=0;hachureGap=4;fontFamily=Helvetica;fontSize=20;" vertex="1" parent="UFqSZ7EOs6Zyw-vwE1AV-1">
                    <mxGeometry x="70" y="240" width="120" height="60" as="geometry"/>
                </mxCell>
                <mxCell id="UFqSZ7EOs6Zyw-vwE1AV-12" style="edgeStyle=none;curved=1;rounded=0;sketch=0;hachureGap=4;orthogonalLoop=1;jettySize=auto;html=1;exitX=0.5;exitY=1;exitDx=0;exitDy=0;entryX=0.067;entryY=0;entryDx=0;entryDy=0;entryPerimeter=0;fontFamily=Helvetica;fontSize=13;endArrow=none;startSize=14;endSize=14;sourcePerimeterSpacing=8;targetPerimeterSpacing=8;endFill=0;" edge="1" parent="UFqSZ7EOs6Zyw-vwE1AV-1" source="UFqSZ7EOs6Zyw-vwE1AV-9" target="UFqSZ7EOs6Zyw-vwE1AV-6">
                    <mxGeometry relative="1" as="geometry"/>
                </mxCell>
                <mxCell id="UFqSZ7EOs6Zyw-vwE1AV-9" value="&lt;span style=&quot;font-size: 13px&quot;&gt;flight_id&lt;/span&gt;" style="ellipse;whiteSpace=wrap;html=1;sketch=0;hachureGap=4;fontFamily=Helvetica;fontSize=20;" vertex="1" parent="UFqSZ7EOs6Zyw-vwE1AV-1">
                    <mxGeometry x="290" y="110" width="90" height="40" as="geometry"/>
                </mxCell>
                <mxCell id="UFqSZ7EOs6Zyw-vwE1AV-13" style="edgeStyle=none;curved=1;rounded=0;sketch=0;hachureGap=4;orthogonalLoop=1;jettySize=auto;html=1;exitX=0.5;exitY=1;exitDx=0;exitDy=0;fontFamily=Helvetica;fontSize=13;endArrow=none;endFill=0;startSize=14;endSize=14;sourcePerimeterSpacing=8;targetPerimeterSpacing=8;" edge="1" parent="UFqSZ7EOs6Zyw-vwE1AV-1" source="UFqSZ7EOs6Zyw-vwE1AV-10" target="UFqSZ7EOs6Zyw-vwE1AV-6">
                    <mxGeometry relative="1" as="geometry"/>
                </mxCell>
                <mxCell id="UFqSZ7EOs6Zyw-vwE1AV-10" value="&lt;span style=&quot;font-size: 13px&quot;&gt;origin&lt;/span&gt;" style="ellipse;whiteSpace=wrap;html=1;sketch=0;hachureGap=4;fontFamily=Helvetica;fontSize=20;" vertex="1" parent="UFqSZ7EOs6Zyw-vwE1AV-1">
                    <mxGeometry x="350" y="50" width="80" height="30" as="geometry"/>
                </mxCell>
                <mxCell id="UFqSZ7EOs6Zyw-vwE1AV-14" style="edgeStyle=none;curved=1;rounded=0;sketch=0;hachureGap=4;orthogonalLoop=1;jettySize=auto;html=1;exitX=0.5;exitY=1;exitDx=0;exitDy=0;fontFamily=Helvetica;fontSize=13;endArrow=none;endFill=0;startSize=14;endSize=14;sourcePerimeterSpacing=8;targetPerimeterSpacing=8;" edge="1" parent="UFqSZ7EOs6Zyw-vwE1AV-1" source="UFqSZ7EOs6Zyw-vwE1AV-11" target="UFqSZ7EOs6Zyw-vwE1AV-6">
                    <mxGeometry relative="1" as="geometry"/>
                </mxCell>
                <mxCell id="UFqSZ7EOs6Zyw-vwE1AV-11" value="&lt;span style=&quot;font-size: 13px&quot;&gt;destination&lt;/span&gt;" style="ellipse;whiteSpace=wrap;html=1;sketch=0;hachureGap=4;fontFamily=Helvetica;fontSize=20;" vertex="1" parent="UFqSZ7EOs6Zyw-vwE1AV-1">
                    <mxGeometry x="410" y="90" width="90" height="40" as="geometry"/>
                </mxCell>
                <mxCell id="UFqSZ7EOs6Zyw-vwE1AV-22" style="edgeStyle=none;curved=1;rounded=0;sketch=0;hachureGap=4;orthogonalLoop=1;jettySize=auto;html=1;exitX=0.5;exitY=1;exitDx=0;exitDy=0;entryX=0.592;entryY=0.017;entryDx=0;entryDy=0;entryPerimeter=0;fontFamily=Helvetica;fontSize=13;endArrow=none;endFill=0;startSize=14;endSize=14;sourcePerimeterSpacing=8;targetPerimeterSpacing=8;" edge="1" parent="UFqSZ7EOs6Zyw-vwE1AV-1" source="UFqSZ7EOs6Zyw-vwE1AV-15" target="UFqSZ7EOs6Zyw-vwE1AV-7">
                    <mxGeometry relative="1" as="geometry"/>
                </mxCell>
                <mxCell id="UFqSZ7EOs6Zyw-vwE1AV-15" value="&lt;span style=&quot;font-size: 13px&quot;&gt;airport_id&lt;/span&gt;" style="ellipse;whiteSpace=wrap;html=1;sketch=0;hachureGap=4;fontFamily=Helvetica;fontSize=20;" vertex="1" parent="UFqSZ7EOs6Zyw-vwE1AV-1">
                    <mxGeometry x="670" y="50" width="90" height="40" as="geometry"/>
                </mxCell>
                <mxCell id="UFqSZ7EOs6Zyw-vwE1AV-23" style="edgeStyle=none;curved=1;rounded=0;sketch=0;hachureGap=4;orthogonalLoop=1;jettySize=auto;html=1;exitX=0.5;exitY=1;exitDx=0;exitDy=0;entryX=0.933;entryY=-0.017;entryDx=0;entryDy=0;entryPerimeter=0;fontFamily=Helvetica;fontSize=13;endArrow=none;endFill=0;startSize=14;endSize=14;sourcePerimeterSpacing=8;targetPerimeterSpacing=8;" edge="1" parent="UFqSZ7EOs6Zyw-vwE1AV-1" source="UFqSZ7EOs6Zyw-vwE1AV-16" target="UFqSZ7EOs6Zyw-vwE1AV-7">
                    <mxGeometry relative="1" as="geometry"/>
                </mxCell>
                <mxCell id="UFqSZ7EOs6Zyw-vwE1AV-16" value="&lt;span style=&quot;font-size: 13px&quot;&gt;city&lt;/span&gt;" style="ellipse;whiteSpace=wrap;html=1;sketch=0;hachureGap=4;fontFamily=Helvetica;fontSize=20;" vertex="1" parent="UFqSZ7EOs6Zyw-vwE1AV-1">
                    <mxGeometry x="720" y="100" width="90" height="40" as="geometry"/>
                </mxCell>
                <mxCell id="UFqSZ7EOs6Zyw-vwE1AV-21" style="edgeStyle=none;curved=1;rounded=0;sketch=0;hachureGap=4;orthogonalLoop=1;jettySize=auto;html=1;exitX=0.5;exitY=1;exitDx=0;exitDy=0;fontFamily=Helvetica;fontSize=13;endArrow=none;endFill=0;startSize=14;endSize=14;sourcePerimeterSpacing=8;targetPerimeterSpacing=8;" edge="1" parent="UFqSZ7EOs6Zyw-vwE1AV-1" source="UFqSZ7EOs6Zyw-vwE1AV-17" target="UFqSZ7EOs6Zyw-vwE1AV-7">
                    <mxGeometry relative="1" as="geometry"/>
                </mxCell>
                <mxCell id="UFqSZ7EOs6Zyw-vwE1AV-17" value="&lt;span style=&quot;font-size: 13px&quot;&gt;country&lt;/span&gt;" style="ellipse;whiteSpace=wrap;html=1;sketch=0;hachureGap=4;fontFamily=Helvetica;fontSize=20;" vertex="1" parent="UFqSZ7EOs6Zyw-vwE1AV-1">
                    <mxGeometry x="550" y="110" width="90" height="40" as="geometry"/>
                </mxCell>
                <mxCell id="UFqSZ7EOs6Zyw-vwE1AV-30" style="edgeStyle=none;curved=1;rounded=0;sketch=0;hachureGap=4;orthogonalLoop=1;jettySize=auto;html=1;exitX=0.5;exitY=1;exitDx=0;exitDy=0;fontFamily=Helvetica;fontSize=13;endArrow=none;endFill=0;startSize=14;endSize=14;sourcePerimeterSpacing=8;targetPerimeterSpacing=8;" edge="1" parent="UFqSZ7EOs6Zyw-vwE1AV-1" source="UFqSZ7EOs6Zyw-vwE1AV-24" target="UFqSZ7EOs6Zyw-vwE1AV-8">
                    <mxGeometry relative="1" as="geometry"/>
                </mxCell>
                <mxCell id="UFqSZ7EOs6Zyw-vwE1AV-24" value="&lt;span style=&quot;font-size: 13px&quot;&gt;reg_num&lt;/span&gt;" style="ellipse;whiteSpace=wrap;html=1;sketch=0;hachureGap=4;fontFamily=Helvetica;fontSize=20;" vertex="1" parent="UFqSZ7EOs6Zyw-vwE1AV-1">
                    <mxGeometry x="20" y="130" width="90" height="40" as="geometry"/>
                </mxCell>
                <mxCell id="UFqSZ7EOs6Zyw-vwE1AV-31" style="edgeStyle=none;curved=1;rounded=0;sketch=0;hachureGap=4;orthogonalLoop=1;jettySize=auto;html=1;exitX=0.5;exitY=1;exitDx=0;exitDy=0;fontFamily=Helvetica;fontSize=13;endArrow=none;endFill=0;startSize=14;endSize=14;sourcePerimeterSpacing=8;targetPerimeterSpacing=8;" edge="1" parent="UFqSZ7EOs6Zyw-vwE1AV-1" source="UFqSZ7EOs6Zyw-vwE1AV-25" target="UFqSZ7EOs6Zyw-vwE1AV-8">
                    <mxGeometry relative="1" as="geometry"/>
                </mxCell>
                <mxCell id="UFqSZ7EOs6Zyw-vwE1AV-25" value="&lt;span style=&quot;font-size: 13px&quot;&gt;modell&lt;/span&gt;" style="ellipse;whiteSpace=wrap;html=1;sketch=0;hachureGap=4;fontFamily=Helvetica;fontSize=20;" vertex="1" parent="UFqSZ7EOs6Zyw-vwE1AV-1">
                    <mxGeometry x="150" y="130" width="90" height="40" as="geometry"/>
                </mxCell>
                <mxCell id="UFqSZ7EOs6Zyw-vwE1AV-32" style="edgeStyle=none;curved=1;rounded=0;sketch=0;hachureGap=4;orthogonalLoop=1;jettySize=auto;html=1;exitX=0.5;exitY=1;exitDx=0;exitDy=0;entryX=0.5;entryY=0;entryDx=0;entryDy=0;fontFamily=Helvetica;fontSize=13;endArrow=none;endFill=0;startSize=14;endSize=14;sourcePerimeterSpacing=8;targetPerimeterSpacing=8;" edge="1" parent="UFqSZ7EOs6Zyw-vwE1AV-1" source="UFqSZ7EOs6Zyw-vwE1AV-26" target="UFqSZ7EOs6Zyw-vwE1AV-8">
                    <mxGeometry relative="1" as="geometry"/>
                </mxCell>
                <mxCell id="UFqSZ7EOs6Zyw-vwE1AV-26" value="&lt;span style=&quot;font-size: 13px&quot;&gt;manufacturer&lt;/span&gt;" style="ellipse;whiteSpace=wrap;html=1;sketch=0;hachureGap=4;fontFamily=Helvetica;fontSize=20;" vertex="1" parent="UFqSZ7EOs6Zyw-vwE1AV-1">
                    <mxGeometry x="80" y="80" width="90" height="40" as="geometry"/>
                </mxCell>
                <mxCell id="UFqSZ7EOs6Zyw-vwE1AV-33" style="edgeStyle=none;curved=1;rounded=0;sketch=0;hachureGap=4;orthogonalLoop=1;jettySize=auto;html=1;exitX=0.5;exitY=0;exitDx=0;exitDy=0;fontFamily=Helvetica;fontSize=13;endArrow=none;endFill=0;startSize=14;endSize=14;sourcePerimeterSpacing=8;targetPerimeterSpacing=8;" edge="1" parent="UFqSZ7EOs6Zyw-vwE1AV-1" source="UFqSZ7EOs6Zyw-vwE1AV-29" target="UFqSZ7EOs6Zyw-vwE1AV-8">
                    <mxGeometry relative="1" as="geometry"/>
                </mxCell>
                <mxCell id="UFqSZ7EOs6Zyw-vwE1AV-29" value="&lt;span style=&quot;font-size: 13px&quot;&gt;capacity&lt;/span&gt;" style="ellipse;whiteSpace=wrap;html=1;sketch=0;hachureGap=4;fontFamily=Helvetica;fontSize=20;" vertex="1" parent="UFqSZ7EOs6Zyw-vwE1AV-1">
                    <mxGeometry x="140" y="360" width="90" height="40" as="geometry"/>
                </mxCell>
                <mxCell id="UFqSZ7EOs6Zyw-vwE1AV-35" style="edgeStyle=none;curved=1;rounded=0;sketch=0;hachureGap=4;orthogonalLoop=1;jettySize=auto;html=1;exitX=0.5;exitY=0;exitDx=0;exitDy=0;fontFamily=Helvetica;fontSize=13;endArrow=none;endFill=0;startSize=14;endSize=14;sourcePerimeterSpacing=8;targetPerimeterSpacing=8;" edge="1" parent="UFqSZ7EOs6Zyw-vwE1AV-1" source="UFqSZ7EOs6Zyw-vwE1AV-34" target="UFqSZ7EOs6Zyw-vwE1AV-8">
                    <mxGeometry relative="1" as="geometry"/>
                </mxCell>
                <mxCell id="UFqSZ7EOs6Zyw-vwE1AV-34" value="&lt;span style=&quot;font-size: 13px&quot;&gt;flight_range&lt;/span&gt;" style="ellipse;whiteSpace=wrap;html=1;sketch=0;hachureGap=4;fontFamily=Helvetica;fontSize=20;" vertex="1" parent="UFqSZ7EOs6Zyw-vwE1AV-1">
                    <mxGeometry x="40" y="373.5" width="90" height="40" as="geometry"/>
                </mxCell>
            </root>
        </mxGraphModel>
    </diagram>
    <diagram name="Page-3" id="DOENlWuPaowcKn1afmeh">
        <mxGraphModel dx="1356" dy="706" grid="1" gridSize="10" guides="1" tooltips="1" connect="1" arrows="1" fold="1" page="1" pageScale="1" pageWidth="1169" pageHeight="827" math="0" shadow="0">
            <root>
                <mxCell id="CD4TNRw7sIohugtw5bqx-0"/>
                <mxCell id="CD4TNRw7sIohugtw5bqx-1" parent="CD4TNRw7sIohugtw5bqx-0"/>
                <mxCell id="CD4TNRw7sIohugtw5bqx-29" value="planes" style="swimlane;fontStyle=0;childLayout=stackLayout;horizontal=1;startSize=26;fillColor=none;horizontalStack=0;resizeParent=1;resizeParentMax=0;resizeLast=0;collapsible=1;marginBottom=0;sketch=0;hachureGap=4;fontFamily=Helvetica;fontSize=13;" vertex="1" parent="CD4TNRw7sIohugtw5bqx-1">
                    <mxGeometry x="100" y="150" width="140" height="130" as="geometry"/>
                </mxCell>
                <mxCell id="CD4TNRw7sIohugtw5bqx-30" value="reg_num: int" style="text;strokeColor=none;fillColor=none;align=left;verticalAlign=top;spacingLeft=4;spacingRight=4;overflow=hidden;rotatable=0;points=[[0,0.5],[1,0.5]];portConstraint=eastwest;sketch=0;hachureGap=4;fontFamily=Helvetica;fontSize=13;" vertex="1" parent="CD4TNRw7sIohugtw5bqx-29">
                    <mxGeometry y="26" width="140" height="26" as="geometry"/>
                </mxCell>
                <mxCell id="CD4TNRw7sIohugtw5bqx-31" value="manufacturer: varchar" style="text;strokeColor=none;fillColor=none;align=left;verticalAlign=top;spacingLeft=4;spacingRight=4;overflow=hidden;rotatable=0;points=[[0,0.5],[1,0.5]];portConstraint=eastwest;sketch=0;hachureGap=4;fontFamily=Helvetica;fontSize=13;" vertex="1" parent="CD4TNRw7sIohugtw5bqx-29">
                    <mxGeometry y="52" width="140" height="26" as="geometry"/>
                </mxCell>
                <mxCell id="CD4TNRw7sIohugtw5bqx-32" value="model: varchar" style="text;strokeColor=none;fillColor=none;align=left;verticalAlign=top;spacingLeft=4;spacingRight=4;overflow=hidden;rotatable=0;points=[[0,0.5],[1,0.5]];portConstraint=eastwest;sketch=0;hachureGap=4;fontFamily=Helvetica;fontSize=13;" vertex="1" parent="CD4TNRw7sIohugtw5bqx-29">
                    <mxGeometry y="78" width="140" height="26" as="geometry"/>
                </mxCell>
                <mxCell id="QV0b4C28BXh_ZvJsieV6-0" value="model: varchar" style="text;strokeColor=none;fillColor=none;align=left;verticalAlign=top;spacingLeft=4;spacingRight=4;overflow=hidden;rotatable=0;points=[[0,0.5],[1,0.5]];portConstraint=eastwest;sketch=0;hachureGap=4;fontFamily=Helvetica;fontSize=13;" vertex="1" parent="CD4TNRw7sIohugtw5bqx-29">
                    <mxGeometry y="104" width="140" height="26" as="geometry"/>
                </mxCell>
            </root>
        </mxGraphModel>
    </diagram>
</mxfile>